<svg width="1920" height="845" viewBox="0 0 1920 845" fill="none" xmlns="http://www.w3.org/2000/svg">
<line x1="992.5" y1="-46" x2="992.5" y2="891" stroke="#7733FF" stroke-opacity="0.04" stroke-dasharray="2 2"/>
<line x1="480.5" y1="-46" x2="480.5" y2="891" stroke="#7733FF" stroke-opacity="0.04" stroke-dasharray="2 2"/>
<line x1="1504.5" y1="-46" x2="1504.5" y2="891" stroke="#7733FF" stroke-opacity="0.04" stroke-dasharray="2 2"/>
<line x1="224.5" y1="-46" x2="224.5" y2="891" stroke="#7733FF" stroke-opacity="0.04" stroke-dasharray="2 2"/>
<line x1="1248.5" y1="-46" x2="1248.5" y2="891" stroke="#7733FF" stroke-opacity="0.04" stroke-dasharray="2 2"/>
<line x1="736.5" y1="-46" x2="736.5" y2="891" stroke="#7733FF" stroke-opacity="0.04" stroke-dasharray="2 2"/>
<line x1="1760.5" y1="-46" x2="1760.5" y2="891" stroke="#7733FF" stroke-opacity="0.04" stroke-dasharray="2 2"/>
<line x1="96.5" y1="-46" x2="96.5" y2="891" stroke="#7733FF" stroke-opacity="0.04" stroke-dasharray="2 2"/>
<line x1="1120.5" y1="-46" x2="1120.5" y2="891" stroke="#7733FF" stroke-opacity="0.04" stroke-dasharray="2 2"/>
<line x1="608.5" y1="-46" x2="608.5" y2="891" stroke="#7733FF" stroke-opacity="0.04" stroke-dasharray="2 2"/>
<line x1="1632.5" y1="-46" x2="1632.5" y2="891" stroke="#7733FF" stroke-opacity="0.04" stroke-dasharray="2 2"/>
<line x1="352.5" y1="-46" x2="352.5" y2="891" stroke="#7733FF" stroke-opacity="0.04" stroke-dasharray="2 2"/>
<line x1="1376.5" y1="-46" x2="1376.5" y2="891" stroke="#7733FF" stroke-opacity="0.04" stroke-dasharray="2 2"/>
<line x1="864.5" y1="-46" x2="864.5" y2="891" stroke="#7733FF" stroke-opacity="0.04" stroke-dasharray="2 2"/>
<line x1="1888.5" y1="-46" x2="1888.5" y2="891" stroke="#7733FF" stroke-opacity="0.04" stroke-dasharray="2 2"/>
<line x1="0.5" y1="-46" x2="0.499959" y2="891" stroke="#7733FF" stroke-opacity="0.04" stroke-dasharray="2 2"/>
<line x1="1024.5" y1="-46" x2="1024.5" y2="891" stroke="#7733FF" stroke-opacity="0.04" stroke-dasharray="2 2"/>
<line x1="512.5" y1="-46" x2="512.5" y2="891" stroke="#7733FF" stroke-opacity="0.04" stroke-dasharray="2 2"/>
<line x1="1536.5" y1="-46" x2="1536.5" y2="891" stroke="#7733FF" stroke-opacity="0.04" stroke-dasharray="2 2"/>
<line x1="256.5" y1="-46" x2="256.5" y2="891" stroke="#7733FF" stroke-opacity="0.04" stroke-dasharray="2 2"/>
<line x1="1280.5" y1="-46" x2="1280.5" y2="891" stroke="#7733FF" stroke-opacity="0.04" stroke-dasharray="2 2"/>
<line x1="768.5" y1="-46" x2="768.5" y2="891" stroke="#7733FF" stroke-opacity="0.04" stroke-dasharray="2 2"/>
<line x1="1792.5" y1="-46" x2="1792.5" y2="891" stroke="#7733FF" stroke-opacity="0.04" stroke-dasharray="2 2"/>
<line x1="128.5" y1="-46" x2="128.5" y2="891" stroke="#7733FF" stroke-opacity="0.04" stroke-dasharray="2 2"/>
<line x1="1152.5" y1="-46" x2="1152.5" y2="891" stroke="#7733FF" stroke-opacity="0.04" stroke-dasharray="2 2"/>
<line x1="640.5" y1="-46" x2="640.5" y2="891" stroke="#7733FF" stroke-opacity="0.04" stroke-dasharray="2 2"/>
<line x1="1664.5" y1="-46" x2="1664.5" y2="891" stroke="#7733FF" stroke-opacity="0.04" stroke-dasharray="2 2"/>
<line x1="384.5" y1="-46" x2="384.5" y2="891" stroke="#7733FF" stroke-opacity="0.04" stroke-dasharray="2 2"/>
<line x1="1408.5" y1="-46" x2="1408.5" y2="891" stroke="#7733FF" stroke-opacity="0.04" stroke-dasharray="2 2"/>
<line x1="896.5" y1="-46" x2="896.5" y2="891" stroke="#7733FF" stroke-opacity="0.04" stroke-dasharray="2 2"/>
<line x1="32.5" y1="-46" x2="32.5" y2="891" stroke="#7733FF" stroke-opacity="0.04" stroke-dasharray="2 2"/>
<line x1="1056.5" y1="-46" x2="1056.5" y2="891" stroke="#7733FF" stroke-opacity="0.04" stroke-dasharray="2 2"/>
<line x1="544.5" y1="-46" x2="544.5" y2="891" stroke="#7733FF" stroke-opacity="0.04" stroke-dasharray="2 2"/>
<line x1="1568.5" y1="-46" x2="1568.5" y2="891" stroke="#7733FF" stroke-opacity="0.04" stroke-dasharray="2 2"/>
<line x1="288.5" y1="-46" x2="288.5" y2="891" stroke="#7733FF" stroke-opacity="0.04" stroke-dasharray="2 2"/>
<line x1="1312.5" y1="-46" x2="1312.5" y2="891" stroke="#7733FF" stroke-opacity="0.04" stroke-dasharray="2 2"/>
<line x1="800.5" y1="-46" x2="800.5" y2="891" stroke="#7733FF" stroke-opacity="0.04" stroke-dasharray="2 2"/>
<line x1="1824.5" y1="-46" x2="1824.5" y2="891" stroke="#7733FF" stroke-opacity="0.04" stroke-dasharray="2 2"/>
<line x1="160.5" y1="-46" x2="160.5" y2="891" stroke="#7733FF" stroke-opacity="0.04" stroke-dasharray="2 2"/>
<line x1="1184.5" y1="-46" x2="1184.5" y2="891" stroke="#7733FF" stroke-opacity="0.04" stroke-dasharray="2 2"/>
<line x1="672.5" y1="-46" x2="672.5" y2="891" stroke="#7733FF" stroke-opacity="0.04" stroke-dasharray="2 2"/>
<line x1="1696.5" y1="-46" x2="1696.5" y2="891" stroke="#7733FF" stroke-opacity="0.04" stroke-dasharray="2 2"/>
<line x1="416.5" y1="-46" x2="416.5" y2="891" stroke="#7733FF" stroke-opacity="0.04" stroke-dasharray="2 2"/>
<line x1="1440.5" y1="-46" x2="1440.5" y2="891" stroke="#7733FF" stroke-opacity="0.04" stroke-dasharray="2 2"/>
<line x1="928.5" y1="-46" x2="928.5" y2="891" stroke="#7733FF" stroke-opacity="0.04" stroke-dasharray="2 2"/>
<line x1="64.5" y1="-46" x2="64.5" y2="891" stroke="#7733FF" stroke-opacity="0.04" stroke-dasharray="2 2"/>
<line x1="1088.5" y1="-46" x2="1088.5" y2="891" stroke="#7733FF" stroke-opacity="0.04" stroke-dasharray="2 2"/>
<line x1="576.5" y1="-46" x2="576.5" y2="891" stroke="#7733FF" stroke-opacity="0.04" stroke-dasharray="2 2"/>
<line x1="1600.5" y1="-46" x2="1600.5" y2="891" stroke="#7733FF" stroke-opacity="0.04" stroke-dasharray="2 2"/>
<line x1="320.5" y1="-46" x2="320.5" y2="891" stroke="#7733FF" stroke-opacity="0.04" stroke-dasharray="2 2"/>
<line x1="1344.5" y1="-46" x2="1344.5" y2="891" stroke="#7733FF" stroke-opacity="0.04" stroke-dasharray="2 2"/>
<line x1="832.5" y1="-46" x2="832.5" y2="891" stroke="#7733FF" stroke-opacity="0.04" stroke-dasharray="2 2"/>
<line x1="1856.5" y1="-46" x2="1856.5" y2="891" stroke="#7733FF" stroke-opacity="0.04" stroke-dasharray="2 2"/>
<line x1="192.5" y1="-46" x2="192.5" y2="891" stroke="#7733FF" stroke-opacity="0.04" stroke-dasharray="2 2"/>
<line x1="1216.5" y1="-46" x2="1216.5" y2="891" stroke="#7733FF" stroke-opacity="0.04" stroke-dasharray="2 2"/>
<line x1="704.5" y1="-46" x2="704.5" y2="891" stroke="#7733FF" stroke-opacity="0.04" stroke-dasharray="2 2"/>
<line x1="1728.5" y1="-46" x2="1728.5" y2="891" stroke="#7733FF" stroke-opacity="0.04" stroke-dasharray="2 2"/>
<line x1="448.5" y1="-46" x2="448.5" y2="891" stroke="#7733FF" stroke-opacity="0.04" stroke-dasharray="2 2"/>
<line x1="1472.5" y1="-46" x2="1472.5" y2="891" stroke="#7733FF" stroke-opacity="0.04" stroke-dasharray="2 2"/>
<line x1="960.5" y1="-46" x2="960.5" y2="891" stroke="#7733FF" stroke-opacity="0.04" stroke-dasharray="2 2"/>
<line x1="-124" y1="31.5" x2="2048" y2="31.5" stroke="#7733FF" stroke-opacity="0.04" stroke-dasharray="2 2"/>
<line x1="-124" y1="63.5" x2="2048" y2="63.5" stroke="#7733FF" stroke-opacity="0.04" stroke-dasharray="2 2"/>
<line x1="-124" y1="95.5" x2="2048" y2="95.5" stroke="#7733FF" stroke-opacity="0.04" stroke-dasharray="2 2"/>
<line x1="-124" y1="127.5" x2="2048" y2="127.5" stroke="#7733FF" stroke-opacity="0.04" stroke-dasharray="2 2"/>
<line x1="-124" y1="159.5" x2="2048" y2="159.5" stroke="#7733FF" stroke-opacity="0.04" stroke-dasharray="2 2"/>
<line x1="-124" y1="191.5" x2="2048" y2="191.5" stroke="#7733FF" stroke-opacity="0.04" stroke-dasharray="2 2"/>
<line x1="-124" y1="223.5" x2="2048" y2="223.5" stroke="#7733FF" stroke-opacity="0.04" stroke-dasharray="2 2"/>
<line x1="-124" y1="255.5" x2="2048" y2="255.5" stroke="#7733FF" stroke-opacity="0.04" stroke-dasharray="2 2"/>
<line x1="-124" y1="287.5" x2="2048" y2="287.5" stroke="#7733FF" stroke-opacity="0.04" stroke-dasharray="2 2"/>
<line x1="-124" y1="319.5" x2="2048" y2="319.5" stroke="#7733FF" stroke-opacity="0.04" stroke-dasharray="2 2"/>
<line x1="-124" y1="351.5" x2="2048" y2="351.5" stroke="#7733FF" stroke-opacity="0.04" stroke-dasharray="2 2"/>
<line x1="-124" y1="383.5" x2="2048" y2="383.5" stroke="#7733FF" stroke-opacity="0.04" stroke-dasharray="2 2"/>
<line x1="-124" y1="415.5" x2="2048" y2="415.5" stroke="#7733FF" stroke-opacity="0.04" stroke-dasharray="2 2"/>
<line x1="-124" y1="447.5" x2="2048" y2="447.5" stroke="#7733FF" stroke-opacity="0.04" stroke-dasharray="2 2"/>
<line x1="-124" y1="479.5" x2="2048" y2="479.5" stroke="#7733FF" stroke-opacity="0.04" stroke-dasharray="2 2"/>
<line x1="-124" y1="511.5" x2="2048" y2="511.5" stroke="#7733FF" stroke-opacity="0.04" stroke-dasharray="2 2"/>
<line x1="-124" y1="543.5" x2="2048" y2="543.5" stroke="#7733FF" stroke-opacity="0.04" stroke-dasharray="2 2"/>
<line x1="-124" y1="575.5" x2="2048" y2="575.5" stroke="#7733FF" stroke-opacity="0.04" stroke-dasharray="2 2"/>
<line x1="-124" y1="607.5" x2="2048" y2="607.5" stroke="#7733FF" stroke-opacity="0.04" stroke-dasharray="2 2"/>
<line x1="-124" y1="639.5" x2="2048" y2="639.5" stroke="#7733FF" stroke-opacity="0.04" stroke-dasharray="2 2"/>
<line x1="-124" y1="671.5" x2="2048" y2="671.5" stroke="#7733FF" stroke-opacity="0.04" stroke-dasharray="2 2"/>
<line x1="-124" y1="703.5" x2="2048" y2="703.5" stroke="#7733FF" stroke-opacity="0.04" stroke-dasharray="2 2"/>
<line x1="-124" y1="735.5" x2="2048" y2="735.5" stroke="#7733FF" stroke-opacity="0.04" stroke-dasharray="2 2"/>
<line x1="-124" y1="767.5" x2="2048" y2="767.5" stroke="#7733FF" stroke-opacity="0.04" stroke-dasharray="2 2"/>
<line x1="-124" y1="799.5" x2="2048" y2="799.5" stroke="#7733FF" stroke-opacity="0.04" stroke-dasharray="2 2"/>
<line x1="-124" y1="831.5" x2="2048" y2="831.5" stroke="#7733FF" stroke-opacity="0.04" stroke-dasharray="2 2"/>
</svg>
